<svg xmlns="http://www.w3.org/2000/svg" width="398" height="25" viewBox="0 0 398 25"><defs><clipPath id="ef0ja"><path fill="#fff" d="M66 13v-1h332v1z"/></clipPath><clipPath id="ef0jb"><path fill="#fff" d="M12.319 0l12.319 12.32-12.32 12.318L0 12.319z"/></clipPath><clipPath id="ef0jc"><path fill="#fff" d="M37.504 5l7.504 7.504-7.504 7.504L30 12.504z"/></clipPath><clipPath id="ef0jd"><path fill="#fff" d="M54.5 8a4.5 4.5 0 1 1 0 9 4.5 4.5 0 0 1 0-9z"/></clipPath></defs><g><g><g><path fill="none" stroke="#bb9c66" stroke-miterlimit="20" stroke-width="4" d="M66 13v0-1 0h332v1z" clip-path="url(&quot;#ef0ja&quot;)"/></g><g><path fill="none" stroke="#bb9c66" stroke-miterlimit="20" stroke-width="2" d="M12.319 0v0l12.319 12.32v0l-12.32 12.318v0L0 12.319v0z" clip-path="url(&quot;#ef0jb&quot;)"/></g><g><path fill="none" stroke="#bb9c66" stroke-miterlimit="20" stroke-width="2" d="M37.504 5v0l7.504 7.504v0l-7.504 7.504v0L30 12.504v0z" clip-path="url(&quot;#ef0jc&quot;)"/></g><g><path fill="none" stroke="#bb9c66" stroke-miterlimit="20" stroke-width="2" d="M54.5 8a4.5 4.5 0 1 1 0 9 4.5 4.5 0 0 1 0-9z" clip-path="url(&quot;#ef0jd&quot;)"/></g></g></g></svg>