<svg xmlns="http://www.w3.org/2000/svg" width="59" height="25" viewBox="0 0 59 25"><defs><clipPath id="vshha"><path fill="#fff" d="M12.319 0l12.319 12.32-12.32 12.318L0 12.319z"/></clipPath><clipPath id="vshhb"><path fill="#fff" d="M37.504 5l7.504 7.504-7.504 7.504L30 12.504z"/></clipPath><clipPath id="vshhc"><path fill="#fff" d="M54.5 8a4.5 4.5 0 1 1 0 9 4.5 4.5 0 0 1 0-9z"/></clipPath></defs><g><g><path fill="none" stroke="#bb9c66" stroke-miterlimit="20" stroke-width="2" d="M12.319 0v0l12.319 12.32v0l-12.32 12.318v0L0 12.319v0z" clip-path="url(&quot;#vshha&quot;)"/></g><g><path fill="none" stroke="#bb9c66" stroke-miterlimit="20" stroke-width="2" d="M37.504 5v0l7.504 7.504v0l-7.504 7.504v0L30 12.504v0z" clip-path="url(&quot;#vshhb&quot;)"/></g><g><path fill="none" stroke="#bb9c66" stroke-miterlimit="20" stroke-width="2" d="M54.5 8a4.5 4.5 0 1 1 0 9 4.5 4.5 0 0 1 0-9z" clip-path="url(&quot;#vshhc&quot;)"/></g></g></svg>