<svg xmlns="http://www.w3.org/2000/svg" width="173" height="100" viewBox="0 0 173 100"><defs><linearGradient id="56bna" x1="87" x2="87" y1="100" y2="0" gradientUnits="userSpaceOnUse"><stop offset="0" stop-opacity=".96"/><stop offset=".5" stop-color="#d0d0d0" stop-opacity=".96"/><stop offset="1" stop-color="#9e9e9e" stop-opacity=".96"/></linearGradient><clipPath id="56bnb"><path fill="#fff" d="M87 0c27.614 0 50 22.386 50 50s-22.386 50-50 50-50-22.386-50-50S59.386 0 87 0z"/></clipPath><clipPath id="56bnc"><path fill="#fff" d="M5.5 44a5.5 5.5 0 1 1 0 11 5.5 5.5 0 0 1 0-11zm162 0a5.5 5.5 0 1 1 0 11 5.5 5.5 0 0 1 0-11z"/></clipPath></defs><g><g><path fill="url(#56bna)" d="M87 0c27.614 0 50 22.386 50 50s-22.386 50-50 50-50-22.386-50-50S59.386 0 87 0z"/><path fill="none" stroke="#bb9c66" stroke-miterlimit="20" stroke-width="6" d="M87 0c27.614 0 50 22.386 50 50s-22.386 50-50 50-50-22.386-50-50S59.386 0 87 0z" clip-path="url(&quot;#56bnb&quot;)"/></g><g><path fill="none" stroke="#bb9c66" stroke-miterlimit="20" stroke-width="2" d="M5.5 44a5.5 5.5 0 1 1 0 11 5.5 5.5 0 0 1 0-11zm162 0a5.5 5.5 0 1 1 0 11 5.5 5.5 0 0 1 0-11z" clip-path="url(&quot;#56bnc&quot;)"/></g></g></svg>