<svg xmlns="http://www.w3.org/2000/svg" width="28" height="29" viewBox="0 0 28 29"><defs><mask id="68ocb" width="2" height="2" x="-1" y="-1"><path fill="#fff" d="M2 2h24v25H2z"/><path d="M14 2c6.627 0 12 5.39 12 12.037 0 6.648-5.373 12.037-12 12.037S2 20.685 2 14.037C2 7.39 7.373 2 14 2z"/></mask><filter id="68oca" width="44" height="46" x="-8" y="-8" filterUnits="userSpaceOnUse"><feOffset dy="1" in="SourceGraphic" result="FeOffset1269Out"/><feGaussianBlur in="FeOffset1269Out" result="FeGaussianBlur1270Out" stdDeviation="0 0"/></filter><clipPath id="68occ"><path fill="#fff" d="M14 2c6.627 0 12 5.39 12 12.037 0 6.648-5.373 12.037-12 12.037S2 20.685 2 14.037C2 7.39 7.373 2 14 2z"/></clipPath></defs><g><g><g filter="url(#68oca)"><path fill="none" d="M14 2c6.627 0 12 5.39 12 12.037 0 6.648-5.373 12.037-12 12.037S2 20.685 2 14.037C2 7.39 7.373 2 14 2z" mask="url(&quot;#68ocb&quot;)"/><path fill="#80633b" d="M14 2c6.627 0 12 5.39 12 12.037 0 6.648-5.373 12.037-12 12.037S2 20.685 2 14.037C2 7.39 7.373 2 14 2z"/></g><path fill="#1c242a" d="M14 2c6.627 0 12 5.39 12 12.037 0 6.648-5.373 12.037-12 12.037S2 20.685 2 14.037C2 7.39 7.373 2 14 2z"/><path fill="none" stroke="#000" stroke-linecap="round" stroke-linejoin="round" stroke-miterlimit="20" stroke-width="4" d="M14 2c6.627 0 12 5.39 12 12.037 0 6.648-5.373 12.037-12 12.037S2 20.685 2 14.037C2 7.39 7.373 2 14 2z" clip-path="url(&quot;#68occ&quot;)"/></g></g></svg>