<svg xmlns="http://www.w3.org/2000/svg" width="399" height="25" viewBox="0 0 399 25"><defs><clipPath id="vbv9a"><path fill="#fff" d="M332 13.198v-1.015H0v1.015z"/></clipPath><clipPath id="vbv9b"><path fill="#fff" d="M385.681 0l-12.319 12.507 12.32 12.506L398 12.507z"/></clipPath><clipPath id="vbv9c"><path fill="#fff" d="M360.496 5.076l-7.504 7.618 7.504 7.619L368 12.694z"/></clipPath><clipPath id="vbv9d"><path fill="#fff" d="M343.5 8.122c-2.485 0-4.5 2.045-4.5 4.568 0 2.524 2.015 4.569 4.5 4.569s4.5-2.045 4.5-4.569c0-2.523-2.015-4.568-4.5-4.568z"/></clipPath></defs><g><g><g><path fill="none" stroke="#bb9c66" stroke-miterlimit="20" stroke-width="4" d="M332 13.198v0-1.015 0H0v1.015z" clip-path="url(&quot;#vbv9a&quot;)"/></g><g><path fill="none" stroke="#bb9c66" stroke-miterlimit="20" stroke-width="2" d="M385.681 0v0l-12.319 12.507v0l12.32 12.506v0L398 12.507v0z" clip-path="url(&quot;#vbv9b&quot;)"/></g><g><path fill="none" stroke="#bb9c66" stroke-miterlimit="20" stroke-width="2" d="M360.496 5.076v0l-7.504 7.618v0l7.504 7.619v0L368 12.694v0z" clip-path="url(&quot;#vbv9c&quot;)"/></g><g><path fill="none" stroke="#bb9c66" stroke-miterlimit="20" stroke-width="2" d="M343.5 8.122c-2.485 0-4.5 2.045-4.5 4.568 0 2.524 2.015 4.569 4.5 4.569s4.5-2.045 4.5-4.569c0-2.523-2.015-4.568-4.5-4.568z" clip-path="url(&quot;#vbv9d&quot;)"/></g></g></g></svg>